<svg width="41" height="39" viewBox="0 0 41 39" fill="none" xmlns="http://www.w3.org/2000/svg">
<rect x="41" width="39" height="41" rx="5" transform="rotate(90 41 0)" fill="black"/>
<rect x="39.665" y="0.335" width="37.33" height="39.33" rx="3.665" transform="rotate(90 39.665 0.335)" fill="#242424"/>
<rect x="39.665" y="0.335" width="37.33" height="39.33" rx="3.665" transform="rotate(90 39.665 0.335)" stroke="#5A5A5A" stroke-width="0.67"/>
<path d="M22 15H20.5V20L24.78 22.54L25.5 21.33L22 19.25V15ZM21.5 10C19.1131 10 16.8239 10.9482 15.136 12.636C13.4482 14.3239 12.5 16.6131 12.5 19H9.5L13.46 23.03L17.5 19H14.5C14.5 17.1435 15.2375 15.363 16.5503 14.0503C17.863 12.7375 19.6435 12 21.5 12C23.3565 12 25.137 12.7375 26.4497 14.0503C27.7625 15.363 28.5 17.1435 28.5 19C28.5 20.8565 27.7625 22.637 26.4497 23.9497C25.137 25.2625 23.3565 26 21.5 26C19.57 26 17.82 25.21 16.56 23.94L15.14 25.36C16.77 27 19 28 21.5 28C23.8869 28 26.1761 27.0518 27.864 25.364C29.5518 23.6761 30.5 21.3869 30.5 19C30.5 16.6131 29.5518 14.3239 27.864 12.636C26.1761 10.9482 23.8869 10 21.5 10Z" fill="#B9B9B9"/>
</svg>
