<svg width="41" height="39" viewBox="0 0 41 39" fill="none" xmlns="http://www.w3.org/2000/svg">
<rect x="41" width="39" height="41" rx="5" transform="rotate(90 41 0)" fill="black"/>
<rect x="39.665" y="0.335" width="37.33" height="39.33" rx="3.665" transform="rotate(90 39.665 0.335)" fill="#242424"/>
<rect x="39.665" y="0.335" width="37.33" height="39.33" rx="3.665" transform="rotate(90 39.665 0.335)" stroke="#5A5A5A" stroke-width="0.67"/>
<path d="M19.25 20C19.25 20.4142 19.5858 20.75 20 20.75C20.4142 20.75 20.75 20.4142 20.75 20L19.25 20ZM20.5303 10.4697C20.2374 10.1768 19.7626 10.1768 19.4697 10.4697L14.6967 15.2426C14.4038 15.5355 14.4038 16.0104 14.6967 16.3033C14.9896 16.5962 15.4645 16.5962 15.7574 16.3033L20 12.0607L24.2426 16.3033C24.5355 16.5962 25.0104 16.5962 25.3033 16.3033C25.5962 16.0104 25.5962 15.5355 25.3033 15.2426L20.5303 10.4697ZM20.75 20L20.75 11L19.25 11L19.25 20L20.75 20Z" fill="#B9B9B9"/>
<path d="M12 20V25C12 26.6569 13.3431 28 15 28H25C26.6569 28 28 26.6569 28 25V20" stroke="#B9B9B9" stroke-width="1.5" stroke-linecap="round"/>
</svg>
